<?xml version="1.0" encoding="UTF-8"?>
<!-- Generated by Pixelmator Pro 3.2.3 -->
<svg width="1000" height="1000" viewBox="0 0 1000 1000" xmlns="http://www.w3.org/2000/svg" xmlns:xlink="http://www.w3.org/1999/xlink">
    <g id="Group">
        <g id="Swiftlogowhite">
            <g id="g1">
                <path id="Path" fill="#ffffff" stroke="none" d="M 999.773926 276.962341 C 999.717407 266.904175 999.604248 256.855408 999.330933 246.787842 C 998.746399 224.889893 997.455017 202.794006 993.561829 181.122314 C 989.612122 159.120667 983.154846 138.664978 972.983643 118.671265 C 962.991394 99.045105 949.935669 81.078003 934.362915 65.505371 C 918.790222 49.932617 900.832642 36.87677 881.197021 26.884644 C 861.231506 16.722778 840.766418 10.265564 818.78363 6.315796 C 797.102478 2.413269 775.006592 1.121765 753.089783 0.537292 C 743.031616 0.263916 732.97345 0.150818 722.915344 0.084839 C 710.962402 0.028259 699.018982 0.028259 687.0755 0.028259 L 422.405457 0.028259 L 312.764923 0.028259 C 300.821442 0.028259 288.87796 0.028259 276.943909 0.094299 C 266.885742 0.160217 256.818176 0.273376 246.769424 0.546753 C 241.292587 0.697632 235.80632 0.886108 230.310623 1.150085 C 213.832977 1.941895 197.327042 3.403015 181.085022 6.325256 C 164.597961 9.285156 148.968689 13.65918 133.754181 19.946716 C 128.682693 22.039368 123.658325 24.348877 118.671661 26.894043 C 103.94735 34.388184 90.156265 43.607361 77.618912 54.315979 C 73.424088 57.888611 69.389511 61.621582 65.49633 65.514771 C 49.9142 81.096924 36.858387 99.054504 26.866213 118.680664 C 16.694937 138.664978 10.247156 159.130127 6.287993 181.131714 C 2.394816 202.794006 1.103375 224.899353 0.518927 246.797241 C 0.245557 256.864868 0.123011 266.913574 0.057025 276.971741 C -0.008961 288.905823 0.000466 300.849243 0.000466 312.792725 L 0.000466 475.78772 L 0.000466 687.112793 C 0.000466 699.065674 -0.008961 710.999634 0.066452 722.952637 C 0.132438 733.010803 0.245557 743.059448 0.528354 753.108215 C 1.112802 775.015564 2.41367 797.120911 6.29742 818.773804 C 10.247156 840.765991 16.694937 861.240479 26.875641 881.224854 C 36.867813 900.860474 49.923626 918.818054 65.49633 934.381348 C 81.059616 949.963501 99.026672 963.019226 118.671661 973.020874 C 138.646576 983.182678 159.102264 989.630554 181.085022 993.580261 C 202.747314 997.482849 224.862061 998.774231 246.769424 999.358765 C 256.818176 999.622681 266.885742 999.745239 276.943909 999.801758 C 288.87796 999.886597 300.812012 999.877197 312.764923 999.877197 L 687.0849 999.877197 C 699.018982 999.877197 710.971863 999.886597 722.905945 999.801758 C 732.96405 999.745239 743.012817 999.622681 753.080383 999.358765 C 774.997131 998.774231 797.093079 997.473389 818.774231 993.580261 C 840.757019 989.630554 861.212646 983.182678 881.187561 973.020874 C 900.82312 963.019226 918.780823 949.963501 934.353516 934.381348 C 949.926208 918.808655 962.991394 900.860474 972.974243 881.224854 C 983.145447 861.240479 989.602722 840.765991 993.552429 818.773804 C 997.445557 797.120911 998.737 775.015564 999.321472 753.108215 C 999.594849 743.059448 999.708008 733.010803 999.764526 722.952637 C 999.839966 710.999634 999.839966 699.065674 999.839966 687.112793 L 999.839966 312.792725 C 999.839966 300.849243 999.849365 288.905823 999.773926 276.962341 Z"/>
                <path id="path1" fill="#000000" stroke="none" d="M 792.191284 617.129761 C 793.294189 613.368652 794.434814 609.626221 795.405701 605.770813 C 836.901489 440.438049 735.622375 244.968506 564.237732 142.049133 C 639.348694 243.865601 672.549133 367.184143 643.043945 475.033569 C 640.413879 484.648682 637.246582 493.886749 633.74939 502.86084 C 629.950439 500.372223 625.171143 497.534821 618.751648 493.999878 C 618.751648 493.999878 448.262573 388.733215 263.482758 202.548889 C 258.637512 197.656494 362.018768 350.310547 479.341949 474.26062 C 424.073944 443.228271 270.034241 331.14624 172.506836 241.895447 C 184.488022 261.879761 198.741013 281.119385 214.39856 299.6427 C 295.844208 402.920288 402.044037 530.358154 529.283997 628.206055 C 439.882324 682.917969 313.556763 687.169312 187.787323 628.262573 C 156.679626 613.679688 127.428947 596.089722 100.36525 576.105347 C 153.606567 661.265137 235.608368 734.73584 335.407562 777.636169 C 454.418121 828.78479 572.768799 825.315857 660.916748 778.475159 L 660.850769 778.578857 C 661.152405 778.39032 661.4823 778.192383 661.793396 778.003784 C 665.752563 775.882813 669.674011 773.695862 673.501221 771.405212 C 716.081055 749.544983 799.166931 727.976929 843.811218 814.852356 C 854.802612 836.231812 878.171082 722.924316 792.266663 617.224121 C 792.238403 617.177002 792.219543 617.158142 792.191284 617.129761 Z"/>
            </g>
            <g id="g2"/>
            <g id="g3"/>
            <g id="g4"/>
            <g id="g5"/>
            <g id="g6"/>
            <g id="g7"/>
        </g>
    </g>
    <filter id="filter1" x="0" y="0" width="1000" height="1000" filterUnits="userSpaceOnUse" primitiveUnits="userSpaceOnUse" color-interpolation-filters="sRGB">
        <feGaussianBlur stdDeviation="10"/>
        <feOffset dx="10.251346" dy="9.534669" result="offsetblur"/>
        <feFlood flood-color="#000000" flood-opacity="0.5"/>
        <feComposite in2="offsetblur" operator="in"/>
        <feMerge>
            <feMergeNode/>
            <feMergeNode in="SourceGraphic"/>
        </feMerge>
    </filter>
    <path id="32" fill="#ffffff" fill-rule="evenodd" stroke="none" filter="url(#filter1)" d="M 528 702.25 L 528 586.75 L 585.75 586.75 L 585.75 529 L 643.5 529 L 643.5 471.25 L 759 471.25 L 759 413.5 L 816.75 413.5 L 816.75 355.75 L 643.5 355.75 L 643.5 413.5 L 528 413.5 L 528 355.75 L 585.75 355.75 L 585.75 298 L 874.5 298 L 874.5 355.75 L 932.25 355.75 L 932.25 471.25 L 874.5 471.25 L 874.5 529 L 816.75 529 L 816.75 586.75 L 701.25 586.75 L 701.25 644.5 L 932.25 644.5 L 932.25 702.25 Z M 123.75 702.25 L 123.75 644.5 L 66 644.5 L 66 586.75 L 181.5 586.75 L 181.5 644.5 L 354.75 644.5 L 354.75 529 L 181.5 529 L 181.5 471.25 L 239.25 471.25 L 239.25 413.5 L 297 413.5 L 297 355.75 L 123.75 355.75 L 123.75 298 L 470.25 298 L 470.25 355.75 L 412.5 355.75 L 412.5 413.5 L 354.75 413.5 L 354.75 471.25 L 412.5 471.25 L 412.5 529 L 470.25 529 L 470.25 644.5 L 412.5 644.5 L 412.5 702.25 Z"/>
    <mask id="mask1" maskUnits="userSpaceOnUse" maskContentUnits="userSpaceOnUse" mask-type="alpha">
        <filter id="filter2" x="0" y="0" width="1000" height="1000" filterUnits="userSpaceOnUse" primitiveUnits="userSpaceOnUse" color-interpolation-filters="sRGB">
            <feGaussianBlur stdDeviation="10"/>
            <feOffset dx="10.251346" dy="9.534669" result="offsetblur"/>
            <feFlood flood-color="#000000" flood-opacity="0.5"/>
            <feComposite in2="offsetblur" operator="in"/>
            <feMerge>
                <feMergeNode/>
                <feMergeNode in="SourceGraphic"/>
            </feMerge>
        </filter>
        <path id="path2" fill="#ffffff" fill-rule="evenodd" stroke="none" filter="url(#filter2)" d="M 528 702.25 L 528 586.75 L 585.75 586.75 L 585.75 529 L 643.5 529 L 643.5 471.25 L 759 471.25 L 759 413.5 L 816.75 413.5 L 816.75 355.75 L 643.5 355.75 L 643.5 413.5 L 528 413.5 L 528 355.75 L 585.75 355.75 L 585.75 298 L 874.5 298 L 874.5 355.75 L 932.25 355.75 L 932.25 471.25 L 874.5 471.25 L 874.5 529 L 816.75 529 L 816.75 586.75 L 701.25 586.75 L 701.25 644.5 L 932.25 644.5 L 932.25 702.25 Z M 123.75 702.25 L 123.75 644.5 L 66 644.5 L 66 586.75 L 181.5 586.75 L 181.5 644.5 L 354.75 644.5 L 354.75 529 L 181.5 529 L 181.5 471.25 L 239.25 471.25 L 239.25 413.5 L 297 413.5 L 297 355.75 L 123.75 355.75 L 123.75 298 L 470.25 298 L 470.25 355.75 L 412.5 355.75 L 412.5 413.5 L 354.75 413.5 L 354.75 471.25 L 412.5 471.25 L 412.5 529 L 470.25 529 L 470.25 644.5 L 412.5 644.5 L 412.5 702.25 Z"/>
    </mask>
    <g id="Untitled-layer" mask="url(#mask1)">
        <g id="Swiftlogocolor-copy-4">
            <path id="path3" fill="#f05138" stroke="none" d="M 1000.160522 276.820801 C 1000.160522 266.451782 1000.160522 257.025208 1000.160522 246.655945 C 999.217773 224.974609 998.275085 202.350891 994.504517 180.669861 C 990.733887 158.988586 984.135193 138.250244 973.766052 118.454407 C 963.396729 98.658508 951.142151 80.748108 935.117004 65.665527 C 919.091858 49.640503 901.181396 37.385742 882.328247 27.016479 C 862.53241 16.647461 841.793945 10.048767 820.112793 6.278198 C 798.431641 2.507629 776.750488 0.622192 754.126709 0.622192 C 743.757446 0.622192 734.330872 0.622192 723.961731 0.622192 C 711.707153 0.622192 700.395264 0.622192 688.140686 0.622192 L 423.253784 0.622192 L 313.905548 0.622192 C 301.65097 0.622192 290.339111 0.622192 278.084534 0.622192 C 267.71524 0.622192 258.288666 0.622192 247.91951 0.622192 C 242.263504 0.622192 236.607635 0.622192 231.894348 1.56488 C 215.869049 2.507629 198.901321 3.450012 182.876022 6.278198 C 166.850876 9.106018 150.825714 13.819336 135.743134 19.475342 C 131.029846 21.360779 125.373985 24.188599 120.660698 26.074036 C 105.578117 33.615173 92.380966 43.041748 79.18367 53.411072 C 75.413094 57.181641 70.699806 60.952209 66.92923 64.722778 C 50.903931 80.748108 38.649494 98.658508 28.280201 117.511658 C 17.910908 137.307556 11.312331 158.046143 7.541757 179.727173 C 3.771039 201.408203 2.828468 223.089478 1.885752 245.713196 C 1.885752 256.08252 1.885752 265.509094 1.885752 275.878357 C 1.885752 288.132813 1.885752 299.444824 1.885752 311.69928 L 1.885752 474.778931 L 1.885752 685.93457 C 1.885752 698.188965 1.885752 709.500977 1.885752 721.755432 C 1.885752 732.124756 1.885752 741.55127 1.885752 751.920593 C 2.828468 773.601624 3.771039 796.225342 7.541757 817.906616 C 11.312331 839.587646 17.910908 860.326233 28.280201 880.121826 C 38.649494 899.917725 50.903931 917.828125 66.92923 932.910706 C 82.954384 948.936035 100.864822 961.19043 119.717979 971.559753 C 139.513855 981.929016 160.252304 988.527466 181.933456 992.29834 C 203.614624 996.068909 225.295639 997.954041 247.91951 997.954041 C 258.288666 997.954041 267.71524 997.954041 278.084534 997.954041 C 290.339111 997.954041 301.65097 997.954041 313.905548 997.954041 L 688.140686 997.954041 C 700.395264 997.954041 711.707153 997.954041 723.961731 997.954041 C 734.330872 997.954041 743.757446 997.954041 754.126709 997.954041 C 775.807922 997.011597 798.431641 996.068909 820.112793 992.29834 C 841.793945 988.527466 862.53241 981.929016 882.328247 971.559753 C 902.123962 961.19043 920.034546 948.936035 935.117004 932.910706 C 951.142151 916.885742 963.396729 898.974976 973.766052 880.121826 C 984.135193 860.326233 990.733887 839.587646 994.504517 817.906616 C 998.275085 796.225342 1000.160522 774.544312 1000.160522 751.920593 C 1000.160522 741.55127 1000.160522 732.124756 1000.160522 721.755432 C 1000.160522 709.500977 1000.160522 698.188965 1000.160522 685.93457 L 1000.160522 311.69928 C 1000.160522 300.387268 1000.160522 289.0755 1000.160522 276.820801 Z"/>
            <path id="path4" fill="#ffffff" stroke="none" d="M 791.833069 617.120361 C 792.775757 613.349731 793.718323 609.579224 794.661072 605.808594 C 836.137939 440.843506 735.27356 244.770508 563.7099 142.020874 C 639.122498 243.827759 672.11554 367.31604 642.893066 474.778931 C 640.065063 484.205505 637.237244 493.632111 633.466492 503.058685 C 629.695923 500.230835 624.982666 497.402985 618.384094 494.574829 C 618.384094 494.574829 447.762939 388.997314 263.001953 203.293579 C 258.288666 198.580322 361.981018 351.291016 478.870667 474.778931 C 423.253784 443.671387 269.600677 331.495117 171.564163 242.885376 C 183.818741 262.680908 197.958618 282.476807 213.041199 300.387268 C 294.10968 404.07959 400.630035 531.338379 527.888855 629.375061 C 438.336365 684.049072 312.020264 688.76239 186.646744 629.375061 C 155.539017 615.235229 126.316559 597.324463 98.979538 577.528931 C 151.768433 662.368103 233.779633 735.895264 333.701294 779.257568 C 452.476227 830.161072 571.25116 827.333252 658.918213 780.200317 L 658.918213 780.200317 C 658.918213 780.200317 659.860962 780.200317 659.860962 779.257568 C 663.631531 777.372192 667.402222 774.544312 671.172791 772.658875 C 713.592407 750.977905 796.546326 729.29657 841.793945 816.02124 C 854.991089 835.817078 878.557556 722.69812 791.833069 617.120361 C 791.833069 617.120361 791.833069 617.120361 791.833069 617.120361 Z"/>
        </g>
    </g>
</svg>
